<svg viewBox="0 0 900 340" fill="none" xmlns="http://www.w3.org/2000/svg" font-family="-apple-system, BlinkMacSystemFont, 'Segoe UI', Roboto, sans-serif">
  <!-- Data Sources (left) -->
  <rect x="20" y="20" width="170" height="48" rx="8" fill="#fff" stroke="#ccc" stroke-width="1.5"/>
  <text x="105" y="49" text-anchor="middle" font-size="13" font-weight="500" fill="#444">Chat &amp; messaging</text>

  <rect x="20" y="88" width="170" height="48" rx="8" fill="#fff" stroke="#ccc" stroke-width="1.5"/>
  <text x="105" y="117" text-anchor="middle" font-size="13" font-weight="500" fill="#444">Project &amp; knowledge tools</text>

  <rect x="20" y="156" width="170" height="48" rx="8" fill="#fff" stroke="#ccc" stroke-width="1.5"/>
  <text x="105" y="185" text-anchor="middle" font-size="13" font-weight="500" fill="#444">Databases &amp; data stores</text>

  <rect x="20" y="224" width="170" height="48" rx="8" fill="#fff" stroke="#ccc" stroke-width="1.5"/>
  <text x="105" y="253" text-anchor="middle" font-size="13" font-weight="500" fill="#444">APIs &amp; live services</text>

  <!-- Arrows: sources to Teidelum -->
  <path d="M190 44 L290 100" stroke="#F0B27A" stroke-width="2" marker-end="url(#arrow-light)"/>
  <path d="M190 112 L290 130" stroke="#F0B27A" stroke-width="2" marker-end="url(#arrow-light)"/>
  <path d="M190 180 L290 160" stroke="#F0B27A" stroke-width="2" marker-end="url(#arrow-light)"/>
  <path d="M190 248 L290 190" stroke="#F0B27A" stroke-width="2" marker-end="url(#arrow-light)"/>

  <!-- Teidelum core (center) -->
  <rect x="290" y="30" width="300" height="230" rx="12" fill="#FEF3E2" stroke="#E67E22" stroke-width="2"/>
  <text x="440" y="62" text-anchor="middle" font-size="16" font-weight="700" fill="#D35400">Teidelum</text>

  <!-- Inner modules -->
  <rect x="310" y="78" width="120" height="38" rx="6" fill="#fff" stroke="#E67E22" stroke-width="1"/>
  <text x="370" y="102" text-anchor="middle" font-size="12" font-weight="500" fill="#444">Search</text>

  <rect x="450" y="78" width="120" height="38" rx="6" fill="#fff" stroke="#E67E22" stroke-width="1"/>
  <text x="510" y="102" text-anchor="middle" font-size="12" font-weight="500" fill="#444">SQL Engine</text>

  <rect x="310" y="130" width="120" height="38" rx="6" fill="#fff" stroke="#E67E22" stroke-width="1"/>
  <text x="370" y="154" text-anchor="middle" font-size="12" font-weight="500" fill="#444">Graph</text>

  <rect x="450" y="130" width="120" height="38" rx="6" fill="#fff" stroke="#E67E22" stroke-width="1"/>
  <text x="510" y="154" text-anchor="middle" font-size="12" font-weight="500" fill="#444">Catalog</text>

  <rect x="310" y="190" width="260" height="38" rx="6" fill="#fff" stroke="#E67E22" stroke-width="1"/>
  <text x="440" y="214" text-anchor="middle" font-size="12" font-weight="500" fill="#444">Unified API</text>

  <!-- Arrow: Teidelum to MCP -->
  <path d="M590 145 L650 145" stroke="#D35400" stroke-width="2.5" marker-end="url(#arrow-dark)"/>

  <!-- MCP Tools -->
  <rect x="650" y="100" width="120" height="90" rx="10" fill="#fff" stroke="#D35400" stroke-width="1.5"/>
  <text x="710" y="135" text-anchor="middle" font-size="14" font-weight="600" fill="#D35400">MCP</text>
  <text x="710" y="155" text-anchor="middle" font-size="14" font-weight="600" fill="#D35400">Tools</text>

  <!-- Arrow: MCP to AI Agents -->
  <path d="M770 145 L810 145" stroke="#D35400" stroke-width="2.5" marker-end="url(#arrow-dark)"/>

  <!-- AI Agents -->
  <rect x="810" y="100" width="80" height="90" rx="10" fill="#D35400" stroke="none"/>
  <text x="850" y="140" text-anchor="middle" font-size="13" font-weight="600" fill="#fff">AI</text>
  <text x="850" y="158" text-anchor="middle" font-size="13" font-weight="600" fill="#fff">Agents</text>

  <!-- Arrow markers -->
  <defs>
    <marker id="arrow-light" markerWidth="8" markerHeight="6" refX="8" refY="3" orient="auto">
      <path d="M0 0 L8 3 L0 6" fill="none" stroke="#F0B27A" stroke-width="1.5"/>
    </marker>
    <marker id="arrow-dark" markerWidth="8" markerHeight="6" refX="8" refY="3" orient="auto">
      <path d="M0 0 L8 3 L0 6" fill="none" stroke="#D35400" stroke-width="1.5"/>
    </marker>
  </defs>
</svg>
